HIERARCHY
ROOT root
{
	OFFSET 0.000000 0.000000 0.000000
	CHANNELS 6 Xposition Yposition Zposition Zrotation Yrotation Xrotation
	JOINT lhip
	{
		OFFSET 0.058581 -0.082280 -0.017664
		CHANNELS 3 Zrotation Yrotation Xrotation
		JOINT lknee
		{
			OFFSET 0.043451 -0.386469 0.008037
			CHANNELS 3 Zrotation Yrotation Xrotation
			JOINT lankle
			{
				OFFSET -0.014790 -0.426874 -0.037428
				CHANNELS 3 Zrotation Yrotation Xrotation
				JOINT ltoe
				{
					OFFSET 0.041054 -0.060286 0.122042
					CHANNELS 3 Zrotation Yrotation Xrotation
					End Site
					{
						OFFSET 0.000000 0.000000 0.000000
					}
				}
			}
		}
	}
	JOINT rhip
	{
		OFFSET -0.060310 -0.090513 -0.013543
		CHANNELS 3 Zrotation Yrotation Xrotation
		JOINT rknee
		{
			OFFSET -0.043257 -0.383688 -0.004843
			CHANNELS 3 Zrotation Yrotation Xrotation
			JOINT rankle
			{
				OFFSET 0.019056 -0.420046 -0.034562
				CHANNELS 3 Zrotation Yrotation Xrotation
				JOINT rtoe
				{
					OFFSET -0.034840 -0.062106 0.130323
					CHANNELS 3 Zrotation Yrotation Xrotation
					End Site
					{
						OFFSET 0.000000 0.000000 0.000000
					}
				}
			}
		}
	}
	JOINT lowerback
	{
		OFFSET 0.004439 0.124404 -0.038385
		CHANNELS 3 Zrotation Yrotation Xrotation
		JOINT upperback
		{
			OFFSET 0.004488 0.137956 0.026820
			CHANNELS 3 Zrotation Yrotation Xrotation
			JOINT chest
			{
				OFFSET -0.002265 0.056032 0.002855
				CHANNELS 3 Zrotation Yrotation Xrotation
				JOINT lowerneck
				{
					OFFSET -0.013390 0.211636 -0.033468
					CHANNELS 3 Zrotation Yrotation Xrotation
					JOINT upperneck
					{
						OFFSET 0.010113 0.088937 0.050410
						CHANNELS 3 Zrotation Yrotation Xrotation
						End Site
						{
							OFFSET 0.000000 0.000000 0.000000
						}
					}
				}
				JOINT lclavicle
				{
					OFFSET 0.071702 0.114000 -0.018898
					CHANNELS 3 Zrotation Yrotation Xrotation
					JOINT lshoulder
					{
						OFFSET 0.122921 0.045205 -0.019046
						CHANNELS 3 Zrotation Yrotation Xrotation
						JOINT lelbow
						{
							OFFSET 0.255332 -0.015649 -0.022946
							CHANNELS 3 Zrotation Yrotation Xrotation
							JOINT lwrist
							{
								OFFSET 0.265709 0.012698 -0.007375
								CHANNELS 3 Zrotation Yrotation Xrotation
								End Site
								{
									OFFSET 0.000000 0.000000 0.000000
								}
							}
						}
					}
				}
				JOINT rclavicle
				{
					OFFSET -0.082954 0.112472 -0.023707
					CHANNELS 3 Zrotation Yrotation Xrotation
					JOINT rshoulder
					{
						OFFSET -0.113228 0.046853 -0.008472
						CHANNELS 3 Zrotation Yrotation Xrotation
						JOINT relbow
						{
							OFFSET -0.260127 -0.014369 -0.031269
							CHANNELS 3 Zrotation Yrotation Xrotation
							JOINT rwrist
							{
								OFFSET -0.269108 0.006794 -0.006027
								CHANNELS 3 Zrotation Yrotation Xrotation
								End Site
								{
									OFFSET 0.000000 0.000000 0.000000
								}
							}
						}
					}
				}
			}
		}
	}
}
MOTION
Frames: 8
Frame Time: 0.033333
-1.489928 0.356403 0.993704 48.587807 1.459601 86.083382 -1.696172 1.630768 9.592222 -2.914077 -8.291897 3.559743 4.118252 13.471585 -13.121172 0.000000 -0.000000 0.000000 -3.113679 -0.297424 -17.563527 -0.609639 -7.136865 32.831213 4.946482 -11.408633 -8.195915 0.000000 -0.000000 0.000000 0.174047 -3.674622 12.488327 1.903655 -0.446148 -4.212786 0.982374 -2.375759 3.109965 -1.517390 11.264093 1.556283 -3.814525 8.849623 6.728623 -17.324270 6.048260 2.773343 -47.980277 -6.869660 14.080650 -9.398946 -58.724180 25.714313 5.311473 -13.210424 -15.275364 21.402193 -5.164762 1.660309 51.228442 -2.764500 18.980652 1.776643 34.459131 12.180884 3.324753 7.324481 -6.067741 
-1.472291 0.334045 0.989529 50.299049 1.491466 86.588104 -0.939923 2.115462 10.796088 -2.776375 -9.135856 3.667383 3.223455 12.830640 -14.460681 0.000000 -0.000000 0.000000 -3.044526 -0.256342 -19.040087 -1.405961 -6.336746 23.909690 5.952317 -10.990803 -7.847366 0.000000 -0.000000 0.000000 0.255560 -3.992159 12.015549 1.885922 -0.387079 -4.408537 1.142044 -2.590395 3.160255 -1.629137 11.083658 1.578131 -3.667560 8.605664 6.755417 -16.846545 6.319105 2.991799 -47.743410 -8.000599 14.563603 -9.650695 -61.235391 27.324773 5.852760 -13.501069 -16.189780 21.396598 -5.885211 1.608587 51.105983 -2.727430 19.080933 2.517782 33.569464 13.033226 3.866895 7.072548 -7.253313 
-1.453999 0.310562 0.984795 51.785230 1.569013 86.851717 -0.064682 2.394721 12.213076 -2.785214 -10.232959 4.011279 2.759155 12.312163 -15.593223 0.000000 -0.000000 0.000000 -3.269982 -0.843165 -19.627008 -0.991552 -4.493166 14.909755 7.487626 -9.047417 -7.362285 0.000000 -0.000000 0.000000 0.566646 -3.888542 11.550484 1.809924 -0.481020 -4.147100 1.194554 -2.516161 3.134456 -1.919718 11.302125 1.635800 -3.293104 7.934264 6.282999 -16.543940 5.967573 3.052738 -47.503037 -8.780065 15.019011 -9.895197 -62.942931 28.003934 6.901277 -13.482110 -16.567954 21.416171 -5.986988 2.238372 51.216973 -3.014759 18.701997 2.236392 33.331599 12.653036 2.261952 6.596269 -7.447553 
-1.435425 0.285880 0.979075 53.407661 1.461023 87.453528 0.901751 2.819415 13.307326 -2.873721 -11.210404 4.218537 2.084416 11.617481 -16.292562 0.000000 -0.000000 0.000000 -3.449946 -0.559083 -20.223874 -1.667062 -1.650435 7.249184 8.231539 -7.761000 -6.777326 0.000000 -0.000000 0.000000 0.443208 -4.138454 10.802048 1.836857 -0.541521 -4.074083 1.392609 -2.739064 2.867378 -1.758439 11.419186 1.723637 -3.496479 8.108648 6.526577 -16.355417 6.294651 3.236048 -47.316387 -9.109821 15.228807 -10.824792 -63.789185 29.725138 7.165310 -13.310842 -16.641950 21.075191 -6.196339 2.481367 51.141771 -2.929712 19.000717 2.384859 32.066673 12.964326 1.719946 5.899816 -7.473231 
-1.414346 0.259139 0.974280 55.190429 1.103020 87.516266 1.868827 3.253746 14.999076 -2.970208 -12.948183 4.679388 1.155228 10.806718 -16.731525 0.000000 -0.000000 0.000000 -4.171070 -0.407403 -20.088292 -2.434297 0.071239 2.891766 8.443102 -6.504947 -7.056087 0.000000 -0.000000 0.000000 0.156258 -4.332612 10.146315 1.844578 -0.720937 -3.617799 1.491468 -2.918268 2.751934 -1.402679 11.539618 1.535696 -3.634408 7.886650 7.001205 -16.537095 6.496718 3.370797 -46.998400 -9.322696 15.322096 -11.406257 -63.568108 30.387282 6.280408 -14.005109 -16.186023 21.484970 -6.323118 2.595295 50.559521 -2.849915 18.863698 2.587549 31.153083 12.980168 2.957863 6.348885 -6.940294 
-1.393843 0.230745 0.970329 57.620525 1.085107 87.492733 3.426870 2.707019 16.161947 -3.417533 -14.815299 6.331706 0.173803 10.164730 -17.204343 0.000000 -0.000000 0.000000 -4.808465 0.044210 -20.534552 -2.219140 -0.606840 4.315537 7.906095 -7.275629 -7.048878 0.000000 -0.000000 0.000000 -0.063477 -5.050329 9.862113 2.019928 -0.909669 -3.466947 1.404190 -3.065054 2.860975 -1.540026 10.851752 1.939151 -3.713974 6.905512 5.728026 -16.662130 6.908526 3.395150 -46.857257 -9.472728 15.420404 -11.920978 -62.477264 31.364955 5.545456 -14.257937 -15.571078 21.974658 -6.482449 2.071569 50.183894 -3.091893 18.847415 2.664566 30.322040 13.039339 3.537357 6.351884 -6.731199 
-1.371230 0.200363 0.967657 59.411526 1.017922 87.333102 4.570016 2.264484 17.635651 -3.387368 -16.556690 7.902813 -1.120669 10.175754 -16.391144 0.000000 -0.000000 0.000000 -5.018829 0.926664 -20.887866 -1.896918 -1.002062 8.869788 7.673122 -7.840734 -7.080402 0.000000 -0.000000 0.000000 -0.259089 -5.677594 9.364131 2.154840 -0.884879 -3.068533 1.261229 -3.008490 2.701002 -1.580008 11.019808 1.566704 -3.956720 6.512540 6.487495 -16.864875 7.087176 3.506566 -46.924041 -8.651876 15.455263 -12.126205 -60.834939 31.765975 6.113486 -13.836410 -15.106000 22.238778 -6.629456 2.002680 50.095120 -3.206454 18.605898 2.537914 29.445698 13.464932 3.232137 6.063587 -6.995952 
-1.347478 0.168309 0.966775 60.687378 0.899097 87.145168 5.577283 2.014006 18.708251 -3.561853 -17.594417 10.456323 -1.802324 9.883173 -14.335143 0.000000 -0.000000 0.000000 -4.648447 1.257734 -21.066608 -1.367299 -0.620642 13.563067 6.515537 -8.568567 -3.734353 0.000000 -0.000000 0.000000 -0.513373 -5.872741 8.649473 2.238849 -0.624748 -2.436369 1.257934 -3.134370 2.210195 -1.218492 11.194282 1.327516 -4.057946 7.882454 7.178496 -17.650033 7.130559 4.124980 -46.761862 -7.481434 14.891705 -11.965806 -58.797728 31.321383 5.279759 -13.667008 -14.098665 22.349635 -6.496607 2.424389 49.880543 -3.488236 18.317360 2.549972 28.937962 13.307243 3.494572 6.116385 -7.142759 
